<svg xmlns="http://www.w3.org/2000/svg" xmlns:xlink="http://www.w3.org/1999/xlink" width="400" height="300" viewBox="0 0 400 300">
    <defs>
        <path id="prefix__a" d="M4.148 0L14.93 38.705 0 68.147 14.93 98.879 7.465 135 30.564 167.49 4.148 215.019 135.418 215.019 135.418 1z"/>
        <path id="prefix__c" d="M0 0L85.05 0 85.05 85.05 0 85.05z"/>
        <path id="prefix__d" d="M0 0L83.531 0 83.531 83.531 0 83.531z"/>
        <path id="prefix__f" d="M123.8 0L129.622 38.108 117.329 67.55 123.8 98.879 107.502 134.959 144.186 171.132 135.174 209.346 2.162 209.346 0 1z"/>
        <path id="prefix__h" d="M0 0L85.05 0 85.05 85.05 0 85.05z"/>
    </defs>
    <g fill="none" fill-rule="evenodd">
        <g transform="rotate(2 -1063.234 5887.141)">
            <mask id="prefix__b" fill="#fff">
                <use xlink:href="#prefix__a"/>
            </mask>
            <g mask="url(#prefix__b)">
                <g>
                    <g transform="translate(-139 -2) translate(.833 .597)">
                        <g>
                            <path fill="#CDD4DE" d="M273.934 26.7H.167V7.82C.167 3.723 3.501.402 7.613.402h258.875c4.112 0 7.446 3.32 7.446 7.416V26.7z"/>
                            <path fill="#A3B5D6" d="M19.472 12.38c0 2.57-2.08 4.654-4.645 4.654-2.564 0-4.643-2.084-4.643-4.655 0-2.57 2.079-4.654 4.643-4.654 2.565 0 4.645 2.084 4.645 4.654"/>
                            <path fill="#E4EBF7" d="M36.811 12.38c0 2.57-2.079 4.654-4.644 4.654-2.564 0-4.643-2.084-4.643-4.655 0-2.57 2.079-4.654 4.643-4.654 2.565 0 4.644 2.084 4.644 4.654M54.151 12.38c0 2.57-2.079 4.654-4.644 4.654s-4.644-2.084-4.644-4.655c0-2.57 2.08-4.654 4.644-4.654 2.565 0 4.644 2.084 4.644 4.654"/>
                        </g>
                        <path fill="#F0F1F5" d="M8.292 208.749c-4.58 0-8.292-3.316-8.292-7.406V25h273.781v176.343c0 4.09-3.712 7.406-8.292 7.406H8.292z"/>
                        <rect width="238.485" height="154.892" x="17.21" y="38.108" fill="#FFF" fill-rule="nonzero" rx="9.894"/>
                        <g fill-rule="nonzero" opacity=".615" transform="translate(39.167 61.403)">
                            <rect width="98.344" height="12.293" fill="#A3B5D6" rx="6.147"/>
                            <rect width="172.102" height="12.293" y="73.758" fill="#E4EBF7" rx="6.147"/>
                            <rect width="147.516" height="12.293" y="98.344" fill="#E4EBF7" rx="6.147"/>
                            <rect width="122.93" height="12.293" y="49.172" fill="#E4EBF7" rx="6.147"/>
                            <rect width="196.688" height="12.293" y="24.586" fill="#E1E5EB" rx="6.147"/>
                        </g>
                    </g>
                    <g transform="translate(-139 -2) translate(209.875 133.875)"/>
                </g>
            </g>
        </g>
        <g transform="translate(263.734 173.734)">
            <mask id="prefix__e" fill="#fff">
                <use xlink:href="#prefix__d"/>
            </mask>
            <path fill="#BBC2D3" d="M41.766 0C18.699 0 0 18.7 0 41.766S18.7 83.53 41.766 83.53 83.53 64.832 83.53 41.766C83.531 18.699 64.832 0 41.766 0" mask="url(#prefix__e)"/>
            <path fill="#FFF" d="M55.477 54.423l-1.055 1.054c-.873.874-2.29.874-3.164 0L28.054 32.273c-.874-.874-.874-2.29 0-3.164l1.055-1.055c.874-.874 2.29-.874 3.164 0l23.204 23.204c.874.874.874 2.29 0 3.165"/>
            <path fill="#FFF" d="M28.054 54.423l1.055 1.054c.873.874 2.29.874 3.164 0l23.204-23.204c.874-.874.874-2.29 0-3.164l-1.054-1.055c-.874-.874-2.29-.874-3.165 0L28.054 51.258c-.874.874-.874 2.29 0 3.165"/>
        </g>
        <path fill="#8891AD" fill-opacity=".111" d="M184.802 42.898L191.485 44.912 196.084 84.942 183.11 107.821 190.407 139.477 173.437 172.944 211.37 209.948 197.201 247.762 68.424 243.265 67.095 45.99z" transform="rotate(-2 139.233 145.33)"/>
        <g transform="rotate(-2 1306.09 -1621.344)">
            <mask id="prefix__g" fill="#fff">
                <use xlink:href="#prefix__f"/>
            </mask>
            <g mask="url(#prefix__g)">
                <g>
                    <g transform="translate(1.33) translate(.833 .597)">
                        <g>
                            <path fill="#CDD4DE" d="M273.934 26.7H.167V7.82C.167 3.723 3.501.402 7.613.402h258.875c4.112 0 7.446 3.32 7.446 7.416V26.7z"/>
                            <path fill="#BBC2D3" d="M19.472 12.38c0 2.57-2.08 4.654-4.645 4.654-2.564 0-4.643-2.084-4.643-4.655 0-2.57 2.079-4.654 4.643-4.654 2.565 0 4.645 2.084 4.645 4.654"/>
                            <path fill="#F0F1F5" d="M36.811 12.38c0 2.57-2.079 4.654-4.644 4.654-2.564 0-4.643-2.084-4.643-4.655 0-2.57 2.079-4.654 4.643-4.654 2.565 0 4.644 2.084 4.644 4.654M54.151 12.38c0 2.57-2.079 4.654-4.644 4.654s-4.644-2.084-4.644-4.655c0-2.57 2.08-4.654 4.644-4.654 2.565 0 4.644 2.084 4.644 4.654"/>
                        </g>
                        <path fill="#F0F1F5" d="M8.292 208.749c-4.58 0-8.292-3.316-8.292-7.406V25h273.781v176.343c0 4.09-3.712 7.406-8.292 7.406H8.292z"/>
                        <rect width="238.485" height="154.892" x="17.21" y="38.108" fill="#FFF" fill-rule="nonzero" rx="9.894"/>
                        <g fill-rule="nonzero" opacity=".615" transform="translate(39.167 61.403)">
                            <rect width="98.344" height="12.293" fill="#CDD4DE" rx="6.147"/>
                            <rect width="172.102" height="12.293" y="73.758" fill="#E4EBF7" rx="6.147"/>
                            <rect width="147.516" height="12.293" y="98.344" fill="#E4EBF7" rx="6.147"/>
                            <rect width="122.93" height="12.293" y="49.172" fill="#E4EBF7" rx="6.147"/>
                            <rect width="196.688" height="12.293" y="24.586" fill="#CDD4DE" rx="6.147"/>
                        </g>
                    </g>
                    <g transform="translate(1.33) translate(209.875 133.875)"/>
                </g>
            </g>
        </g>
    </g>
</svg>
