<svg xmlns="http://www.w3.org/2000/svg" xmlns:xlink="http://www.w3.org/1999/xlink" width="400" height="300" viewBox="0 0 400 300">
    <defs>
        <path id="a" d="M0 .073h17.898v19.23H0z"/>
        <path id="c" d="M0 0h85.05v85.05H0z"/>
    </defs>
    <g fill="none" fill-rule="evenodd">
        <g fill-rule="nonzero" transform="translate(62.976 29.248)">
            <path fill="#F0F1F5" d="M8.737 187.665a3.046 3.046 0 0 1-2.693-1.62c-5.26-9.928-6.855-21.38-4.734-34.033 2.007-11.988 7.26-24.555 15.615-37.358 16.977-26.018 44.967-50.258 78.81-68.252 33.843-17.995 69.572-27.627 100.611-27.136 15.267.24 28.607 2.923 39.646 7.972 11.659 5.332 20.236 13.067 25.5 22.997a3.05 3.05 0 0 1-1.261 4.122 3.042 3.042 0 0 1-4.116-1.264c-4.621-8.713-12.241-15.547-22.65-20.308-10.273-4.696-22.793-7.194-37.217-7.435-30.024-.482-64.707 8.922-97.656 26.426-32.95 17.503-60.146 41.041-76.571 66.215-7.89 12.094-12.838 23.877-14.706 35.029-1.895 11.3-.511 21.45 4.11 30.163.5.943.47 2.079-.076 2.995a3.046 3.046 0 0 1-2.597 1.487h-.015z"/>
            <circle cx="129.521" cy="109.07" r="109.07" fill="#F7F8FA" opacity=".91"/>
            <path fill="#F0F1F5" d="M202.836 135.545c6.423-17.133 9.637-23.56 0-26.473-9.637-2.914-23.556 15.763-36.413 6.753-12.857-9.01 4.282-28.467-1.072-39.605-5.354-11.138-11.78-12.421-8.565-33.468 1.63-10.68 11.515-22.512 20.857-31.572A108.579 108.579 0 0 0 129.518 0c-4.358 0-8.713.259-13.041.774 9.044 19.824-7.366 34.28-19.643 54.34-14.99 24.511-9.637 39.739 21.414 45.638 31.05 5.9 27.839 43.36 0 52.982-27.84 9.623-19.274-29.967-36.405-30.16-17.13-.194-34.262-4.09-35.333-20.137-.595-9.1-12.235-17.609-22.19-23.27a109.157 109.157 0 0 0-3.87 28.905c0 60.235 48.828 109.068 109.06 109.068a108.683 108.683 0 0 0 75.031-29.923c-7.672-17.781-6.413-40.114-1.705-52.672z"/>
            <path fill="#BBC2D3" d="M46.7 102.856c1.075 16.079 18.244 19.983 35.413 20.177 17.17.193 8.585 39.894 36.486 30.237 27.902-9.658 31.12-47.193 0-53.09-31.12-5.896-36.486-21.176-21.461-45.73 12.292-20.1 28.74-34.598 19.686-54.45C72.326 5.285 36.04 37.303 24.461 79.538c9.983 5.673 21.631 14.2 22.24 23.318z"/>
            <path fill="#CDD4DE" d="M46.7 102.856c1.075 16.079 18.244 19.983 35.413 20.177 17.17.193 8.585 39.894 36.486 30.237 27.902-9.658 31.12-47.193 0-53.09-31.12-5.896-36.486-21.176-21.461-45.73 12.292-20.1 28.74-34.598 19.686-54.45C72.326 5.285 36.04 37.303 24.461 79.538c9.983 5.673 21.631 14.2 22.24 23.318z"/>
            <path fill="#CDD4DE" d="M237.789 108.422c0-43-24.82-80.192-60.892-97.996-9.34 9.07-19.22 20.914-20.85 31.606-3.214 21.07 3.21 22.347 8.562 33.503 5.353 11.156-11.776 30.629 1.062 39.648 12.838 9.02 26.778-9.68 36.403-6.76s6.42 9.35 0 26.501c-4.707 12.571-5.966 34.928 1.705 52.74a108.956 108.956 0 0 0 34.01-79.242z" opacity=".503"/>
            <path fill="#CDD4DE" d="M171.081 190.07a3.054 3.054 0 0 1-2.974-2.302 3.031 3.031 0 0 1 1.537-3.42c33.106-17.462 60.403-40.904 76.9-65.983 7.939-12.052 12.893-23.81 14.769-34.916 1.903-11.264.516-21.38-4.125-30.065a3.029 3.029 0 0 1 1.267-4.108 3.067 3.067 0 0 1 4.134 1.26c5.285 9.894 6.887 21.305 4.772 33.92-2.019 11.948-7.295 24.474-15.682 37.232-17.051 25.935-45.162 50.092-79.154 68.027a3.06 3.06 0 0 1-1.444.356z"/>
        </g>
        <path fill="#F0F1F5" d="M347.266 142.915h-27.664c-3.467 0-6.303-2.837-6.303-6.305v-27.672c0-3.468 2.836-6.306 6.303-6.306h27.664c3.467 0 6.303 2.838 6.303 6.306v27.672c0 3.468-2.836 6.305-6.303 6.305M70.967 82.283H43.303c-3.467 0-6.303-2.837-6.303-6.305V48.305C37 44.837 39.836 42 43.303 42h27.664c3.466 0 6.303 2.837 6.303 6.305v27.673c0 3.468-2.837 6.305-6.303 6.305"/>
        <g transform="translate(59.748 99.648)">
            <mask id="b" fill="#fff">
                <use xlink:href="#a"/>
            </mask>
            <path fill="#CDD4DE" d="M15.085 19.303H2.813C1.266 19.303 0 17.953 0 16.305V3.071C0 1.42 1.266.073 2.813.073h12.272c1.547 0 2.813 1.349 2.813 2.998v13.234c0 1.649-1.266 2.998-2.813 2.998" mask="url(#b)"/>
        </g>
        <path fill="#CDD4DE" d="M347.433 195.134c-1.547 0-2.813-1.256-2.813-2.79V180.02c0-1.535 1.266-2.79 2.813-2.79h12.272c1.547 0 2.813 1.255 2.813 2.79v12.322c0 1.535-1.266 2.791-2.813 2.791h-12.272z"/>
        <g>
            <g transform="translate(102.875 185.875)">
                <mask id="d" fill="#fff">
                    <use xlink:href="#c"/>
                </mask>
                <path fill="#BBC2D3" d="M42.525 0C19.039 0 0 19.039 0 42.525 0 66.011 19.04 85.05 42.525 85.05c23.486 0 42.525-19.04 42.525-42.525C85.05 19.039 66.011 0 42.525 0" mask="url(#d)"/>
            </g>
            <path fill="#FFF" d="M147.137 240.55h-1.52a2.278 2.278 0 0 1-2.277-2.278v-28.856a2.278 2.278 0 0 1 2.278-2.279h1.519a2.278 2.278 0 0 1 2.278 2.279v28.856a2.278 2.278 0 0 1-2.278 2.278M147.137 249.889h-1.52a2.278 2.278 0 0 1-2.277-2.278v-1.52a2.278 2.278 0 0 1 2.278-2.277h1.519a2.278 2.278 0 0 1 2.278 2.278v1.519a2.278 2.278 0 0 1-2.278 2.278"/>
        </g>
    </g>
</svg>
