<?xml version="1.0" encoding="UTF-8"?>
<svg width="60px" height="60px" viewBox="0 0 60 60" version="1.1" xmlns="http://www.w3.org/2000/svg" xmlns:xlink="http://www.w3.org/1999/xlink">
    <!-- Generator: Sketch 60 (88103) - https://sketch.com -->
    <title>编组</title>
    <desc>Created with Sketch.</desc>
    <defs>
        <circle id="path-1" cx="30" cy="30" r="30"></circle>
    </defs>
    <g id="页面-1" stroke="none" stroke-width="1" fill="none" fill-rule="evenodd">
        <g id="画板" transform="translate(-544.000000, -2369.000000)">
            <g id="编组" transform="translate(544.000000, 2369.000000)">
                <mask id="mask-2" fill="white">
                    <use xlink:href="#path-1"></use>
                </mask>
                <use id="蒙版" fill="#F7F7F7" xlink:href="#path-1"></use>
                <g mask="url(#mask-2)">
                    <g transform="translate(4.000000, 5.000000)">
                        <circle id="椭圆形" fill="#818181" fill-rule="evenodd" cx="26" cy="19" r="19"></circle>
                        <ellipse id="椭圆形" fill="#B7B7B7" fill-rule="evenodd" transform="translate(25.000000, 52.000000) rotate(8.000000) translate(-25.000000, -52.000000) " cx="25" cy="52" rx="23" ry="15"></ellipse>
                        <path d="M30.5,38 C28.9745738,42.4860708 27.9745738,45.7672365 27.5,47.8434969 C27.0254262,49.9197574 26.6920928,52.4719251 26.5,55.5 L21.8374668,57.6869939 L13,52.5 C13,49.787134 13.6474585,46.9902136 14.9423755,44.1092388 C16.2372926,41.228264 17.589834,39.191851 19,38 L30.5,38 Z" id="路径" fill="#DBDBDB" fill-rule="evenodd"></path>
                        <rect id="矩形" fill="#E4E4E4" fill-rule="evenodd" x="10" y="8" width="28" height="32" rx="14"></rect>
                        <circle id="椭圆形" fill="#818181" fill-rule="evenodd" cx="27.5" cy="23.5" r="1.5"></circle>
                        <circle id="椭圆形备份" fill="#818181" fill-rule="evenodd" cx="15.5" cy="23.5" r="1.5"></circle>
                        <path d="M11,16.8942298 C13.1232241,13.9969405 15.927499,13.0311773 19.4128246,13.9969405 C24.6408131,15.4455851 28.9791901,18.3622687 33.151404,18.3622687 C35.9328798,18.3622687 38.2157452,17.8729224 40,16.8942298 L30.126237,5.36226867 L16.9612197,8.25505385 L11,13.9969405 L11,16.8942298 Z" id="路径-7" fill="#818181" fill-rule="evenodd"></path>
                        <path d="M21.1490011,24.7864629 C21.2669344,24.5367704 21.564954,24.4299584 21.8146465,24.5478917 C22.064339,24.665825 22.171151,24.9638446 22.0532177,25.2135371 C21.1207536,27.1877827 20.0464372,28.2640723 18.7908956,28.3503356 L18.65,28.354 L18.6686267,28.4148242 C18.7378349,28.6014025 18.9038764,28.8381718 19.1366826,29.0596308 L19.2585102,29.1687813 C20.165108,29.933841 21.3812628,30.0986334 22.5763088,29.3666603 C22.8117898,29.2224268 23.1196093,29.2963974 23.2638428,29.5318784 C23.4080764,29.7673594 23.3341057,30.0751789 23.0986247,30.2194124 C21.5141805,31.1898943 19.833032,30.962094 18.6135812,29.9330237 C18.1184378,29.5151821 17.7645075,29.0014317 17.6645351,28.5360456 C17.5320202,27.9191689 17.8664912,27.4217561 18.4962585,27.3619891 L18.6260983,27.3559653 C19.4675776,27.3559653 20.3234568,26.5343343 21.1490011,24.7864629 Z" id="路径-8" fill="#818181" fill-rule="nonzero"></path>
                    </g>
                </g>
            </g>
        </g>
    </g>
</svg>