<svg xmlns="http://www.w3.org/2000/svg" xmlns:xlink="http://www.w3.org/1999/xlink" width="250" height="200" viewBox="0 0 250 200">
    <defs>
        <circle id="zfjidv7haa" cx="97.938" cy="97.945" r="97.5"/>
    </defs>
    <g fill="none" fill-rule="evenodd">
        <g transform="translate(27 3)">
            <mask id="pwqgr12cjb" fill="#fff">
                <use xlink:href="#zfjidv7haa"/>
            </mask>
            <use fill="#F7F8FA" xlink:href="#zfjidv7haa"/>
            <g mask="url(#pwqgr12cjb)">
                <g>
                    <path fill="#D7DCE4" d="M22.189 111.952L18.243 107.996 49.818 76.346 53.764 80.302z" transform="translate(15.438 49.445)"/>
                    <path fill="#CDD4DE" d="M82.4 83.304c-19.65 0-35.578-15.966-35.578-35.662 0-19.696 15.929-35.663 35.578-35.663s35.577 15.967 35.577 35.663c0 19.696-15.928 35.662-35.577 35.662m0-83.213c-26.199 0-47.437 21.29-47.437 47.55 0 26.262 21.238 47.551 47.437 47.551 26.198 0 47.437-21.29 47.437-47.55 0-26.262-21.239-47.55-47.437-47.55M8.869 129.26L.977 121.348 32.647 89.602 40.539 97.514z" transform="translate(15.438 49.445)"/>
                    <path fill="#BEC4D9" d="M9.846 13.636L0 3.766 3.604 0.153 13.45 10.023z" transform="translate(15.438 49.445) translate(0 116.603)"/>
                </g>
            </g>
        </g>
        <g>
            <path fill="#F0F1F5" d="M220.557 152h-15.114c-1.893 0-3.443-1.55-3.443-3.443v-15.114c0-1.893 1.55-3.443 3.443-3.443h15.114c1.893 0 3.443 1.55 3.443 3.443v15.114c0 1.893-1.55 3.443-3.443 3.443" opacity=".5" transform="translate(14 14)"/>
            <path fill="#CDD4DE" d="M195.324 173.154h-7.585c-.957 0-1.739-.783-1.739-1.739v-7.676c0-.957.782-1.739 1.739-1.739h7.585c.956 0 1.738.782 1.738 1.739v7.676c0 .956-.782 1.739-1.738 1.739M29.973 11.31c-.956 0-1.739-.782-1.739-1.739V1.895c0-.956.783-1.739 1.739-1.739h7.585c.956 0 1.739.783 1.739 1.739V9.57c0 .957-.783 1.74-1.739 1.74h-7.585z" transform="translate(14 14)"/>
            <path fill="#F0F1F5" d="M3.678 38.156c-1.894 0-3.444-1.55-3.444-3.443V19.6c0-1.894 1.55-3.444 3.444-3.444H18.79c1.894 0 3.443 1.55 3.443 3.444v15.113c0 1.894-1.55 3.443-3.443 3.443H3.678z" transform="translate(14 14)"/>
        </g>
    </g>
</svg>
